<svg width="23" height="14" viewBox="0 0 23 14" xmlns="http://www.w3.org/2000/svg">
<path d="M22.003 6.49609C19.6886 2.5957 16.1901 0.632812 11.5001 0.632812C6.80773 0.632812 3.31164 2.5957 0.997181 6.49805C0.904347 6.65531 0.856201 6.82706 0.856201 7.00098C0.856201 7.17489 0.904347 7.34665 0.997181 7.50391C3.31164 11.4043 6.81017 13.3672 11.5001 13.3672C16.1925 13.3672 19.6886 11.4043 22.003 7.50195C22.191 7.18555 22.191 6.81836 22.003 6.49609ZM11.5001 11.9609C7.56213 11.9609 4.67882 10.3633 2.64513 7C4.67882 3.63672 7.56213 2.03906 11.5001 2.03906C15.4381 2.03906 18.3214 3.63672 20.3551 7C18.3239 10.3633 15.4405 11.9609 11.5001 11.9609ZM11.4025 3.5625C9.02941 3.5625 7.10558 5.10156 7.10558 7C7.10558 8.89844 9.02941 10.4375 11.4025 10.4375C13.7755 10.4375 15.6993 8.89844 15.6993 7C15.6993 5.10156 13.7755 3.5625 11.4025 3.5625ZM11.4025 9.1875C9.89123 9.1875 8.66808 8.20898 8.66808 7C8.66808 5.79102 9.89123 4.8125 11.4025 4.8125C12.9137 4.8125 14.1368 5.79102 14.1368 7C14.1368 8.20898 12.9137 9.1875 11.4025 9.1875Z"/>
</svg>
